<svg id="visual" viewBox="0 0 900 600" width="900" height="600" xmlns="http://www.w3.org/2000/svg" xmlns:xlink="http://www.w3.org/1999/xlink" version="1.1"><path d="M0 91L37.5 86C75 81 150 71 225 60C300 49 375 37 450 29C525 21 600 17 675 21C750 25 825 37 862.5 43L900 49L900 0L862.5 0C825 0 750 0 675 0C600 0 525 0 450 0C375 0 300 0 225 0C150 0 75 0 37.5 0L0 0Z" fill="#494f5a"></path><path d="M0 109L37.5 102C75 95 150 81 225 80C300 79 375 91 450 94C525 97 600 91 675 96C750 101 825 117 862.5 125L900 133L900 47L862.5 41C825 35 750 23 675 19C600 15 525 19 450 27C375 35 300 47 225 58C150 69 75 79 37.5 84L0 89Z" fill="#404650"></path><path d="M0 133L37.5 131C75 129 150 125 225 122C300 119 375 117 450 113C525 109 600 103 675 116C750 129 825 161 862.5 177L900 193L900 131L862.5 123C825 115 750 99 675 94C600 89 525 95 450 92C375 89 300 77 225 78C150 79 75 93 37.5 100L0 107Z" fill="#383d47"></path><path d="M0 181L37.5 174C75 167 150 153 225 154C300 155 375 171 450 177C525 183 600 179 675 196C750 213 825 251 862.5 270L900 289L900 191L862.5 175C825 159 750 127 675 114C600 101 525 107 450 111C375 115 300 117 225 120C150 123 75 127 37.5 129L0 131Z" fill="#30343d"></path><path d="M0 331L37.5 322C75 313 150 295 225 291C300 287 375 297 450 305C525 313 600 319 675 335C750 351 825 377 862.5 390L900 403L900 287L862.5 268C825 249 750 211 675 194C600 177 525 181 450 175C375 169 300 153 225 152C150 151 75 165 37.5 172L0 179Z" fill="#282c34"></path><path d="M0 487L37.5 483C75 479 150 471 225 463C300 455 375 447 450 448C525 449 600 459 675 466C750 473 825 477 862.5 479L900 481L900 401L862.5 388C825 375 750 349 675 333C600 317 525 311 450 303C375 295 300 285 225 289C150 293 75 311 37.5 320L0 329Z" fill="#262931"></path><path d="M0 553L37.5 545C75 537 150 521 225 510C300 499 375 493 450 496C525 499 600 511 675 514C750 517 825 511 862.5 508L900 505L900 479L862.5 477C825 475 750 471 675 464C600 457 525 447 450 446C375 445 300 453 225 461C150 469 75 477 37.5 481L0 485Z" fill="#23272d"></path><path d="M0 589L37.5 576C75 563 150 537 225 527C300 517 375 523 450 532C525 541 600 553 675 551C750 549 825 533 862.5 525L900 517L900 503L862.5 506C825 509 750 515 675 512C600 509 525 497 450 494C375 491 300 497 225 508C150 519 75 535 37.5 543L0 551Z" fill="#21242a"></path><path d="M0 601L37.5 601C75 601 150 601 225 601C300 601 375 601 450 601C525 601 600 601 675 601C750 601 825 601 862.5 601L900 601L900 515L862.5 523C825 531 750 547 675 549C600 551 525 539 450 530C375 521 300 515 225 525C150 535 75 561 37.5 574L0 587Z" fill="#1f2227"></path></svg>