<svg id="a88b2483-cac2-4fa5-a026-6b607d7119ff" data-name="Layer 1" xmlns="http://www.w3.org/2000/svg" xmlns:xlink="http://www.w3.org/1999/xlink" viewBox="0 0 30 30">
  <defs>
    <clipPath id="eca59b8f-aae3-4621-964c-fbcc4df7dbaf">
      <path d="M15,0h0A15,15,0,0,1,30,15h0A15,15,0,0,1,15,30h0A15,15,0,0,1,0,15H0A15,15,0,0,1,15,0Z" fill="none"/>
    </clipPath>
    <clipPath id="aa7bd79d-5562-4edf-bd5c-5f54a13007f6">
      <rect x="5" y="5.5" width="19.8" height="25.2" fill="none"/>
    </clipPath>
    <clipPath id="b9554a9e-0358-493c-a72d-39df85ae40de">
      <rect x="14.2" y="15.9" width="1.8" height="0.55" fill="none"/>
    </clipPath>
  </defs>
  <title>ico_young_man</title>
  <g id="e2aeadc1-0b4b-4556-9aee-ebda3fae0175" data-name="Rectángulo 1251-2">
    <path id="bbd0288e-b31e-4b07-bc6f-2a6981f30370" data-name="Rectángulo 1251-3" d="M15,0h0A15,15,0,0,1,30,15h0A15,15,0,0,1,15,30h0A15,15,0,0,1,0,15H0A15,15,0,0,1,15,0Z" fill="#8f9cbe"/>
    <g clip-path="url(#eca59b8f-aae3-4621-964c-fbcc4df7dbaf)">
      <g id="e080216f-a1aa-4ce1-9792-7020185a8d9f" data-name="Clip">
        <g id="f04fb066-44cc-4ae0-9aee-0a5420cc6c53" data-name="Objeto inteligente vectorial">
          <g id="f769912b-7417-44b0-93ef-2526a79b3d4b" data-name="Group 488">
            <g clip-path="url(#aa7bd79d-5562-4edf-bd5c-5f54a13007f6)">
              <g id="e567d0df-f84e-421b-bd40-dd5bec9313af" data-name="Group 487">
                <g id="e99df01a-2aa9-489b-b639-2ea240d9a5f4" data-name="Group 486">
                  <g clip-path="url(#aa7bd79d-5562-4edf-bd5c-5f54a13007f6)">
                    <g id="ac43eab5-cceb-4e36-8578-9fc14b1c7de1" data-name="Group 485">
                      <path id="a8256fb1-d374-4952-8ac7-28a90590d4a6" data-name="Path 1117" d="M12.3,18.2v2c0,.1-.1.2-.2.3a8,8,0,0,0-7,7.8v2.4H24.7V28.3a8,8,0,0,0-7-7.8c-.1-.1-.2-.2-.2-.3v-2Z" fill="#e37969"/>
                      <path id="e8d1b1aa-8cb3-4f4a-bda3-d8262ce9f281" data-name="Path 1118" d="M17.5,18.9a3.1,3.1,0,0,1-2.3,1.4,2.9,2.9,0,0,1-2.9-.5V18.6h5.2Z" fill="#a54a3f"/>
                      <path id="f01090e7-81a5-4f22-b7d8-4cfcb60ce00a" data-name="Path 1119" d="M20.3,21.3a6.8,6.8,0,0,1-5.4,2.2c-2.3,0-4.4-.9-5.3-2.2H9.5a8,8,0,0,0-4.5,7v2.4H24.8V28.3a7.8,7.8,0,0,0-4.5-7Z" fill="#eaeaea"/>
                      <path id="e8aba329-2998-4b40-9119-cfa79c6a7427" data-name="Path 1120" d="M15.8,19.2H14.4A4.1,4.1,0,0,1,10.3,15V11.2a4.6,4.6,0,0,1,4.5-4.6h.6a4.6,4.6,0,0,1,4.5,4.6V15a4.1,4.1,0,0,1-4.1,4.2h0" fill="#e37969"/>
                      <path id="a4a31e07-eb93-4b1c-956a-6ef11aeea4e6" data-name="Path 1121" d="M19.7,8.9h.1c.5.5,1,1.4.6,3.3h-.5a8.8,8.8,0,0,0-.7-3.2h0a5.3,5.3,0,0,1-3-1.2c-1.6-1.2-5,.8-5,.8h0a7.6,7.6,0,0,0-.9,3.6H9.8c-.6-2.9.9-3.6,1.3-3.7,0-2.1,2.1-3,4.3-3a6.5,6.5,0,0,1,2.7.8,6,6,0,0,0,1.1.6c.6.2,1.5.1,1.7-.6s.8,2.4-1.2,2.6" fill="#2b2b2b"/>
                      <path id="b0fc0e42-f4fe-440c-80b6-55de55f28ea4" data-name="Path 1122" d="M15.2,14.3H15c-.3,0-.4-.1-.4-.3h.1c0,.1.1.2.3.2h.2c.2,0,.3-.1.3-.2h.1c0,.2-.2.3-.4.3"/>
                      <path id="f3d78af3-e0e1-4142-93f0-43ac60ebec31" data-name="Path 1123" d="M13.2,12.5c0,.2-.1.4-.2.4s-.3-.2-.3-.4a.3.3,0,0,1,.3-.3c.1,0,.2.1.2.3"/>
                      <path id="b7518617-8558-4732-895f-bc66eb74f150" data-name="Path 1124" d="M12,12.2h0a1,1,0,0,1,1.4-.5h0a.9.9,0,0,0-1.3.5H12"/>
                      <path id="b2a1a575-420c-4ae2-931d-e44046e5e25a" data-name="Path 1125" d="M17,12.5c0,.2.1.4.2.4s.2-.2.2-.4-.1-.3-.2-.3-.2.1-.2.3"/>
                      <path id="a3ddfdef-e264-4f42-84e3-377c187cd917" data-name="Path 1126" d="M18.1,12.2h0a1,1,0,0,0-1.3-.6h-.1a1.1,1.1,0,0,1,1.5.5h-.1"/>
                      <path id="bc5fe38b-199a-4f81-851d-b3a752734cf5" data-name="Path 1127" d="M18.4,14c0,.3-.4.6-.9.6s-1-.3-1-.6.5-.6,1-.6.9.3.9.6" fill="#dd5f5f"/>
                      <path id="bf99585b-bff7-41ea-a6eb-c8d832a6a660" data-name="Path 1128" d="M13.6,14c0,.3-.4.6-.9.6s-1-.3-1-.6.5-.6,1-.6.9.3.9.6" fill="#dd5f5f"/>
                      <path id="acc0c8a4-157f-4c34-a295-93598ad3326b" data-name="Path 1129" d="M15.5,13.6h0a2.3,2.3,0,0,1,.5-1.8h.1a2,2,0,0,0-.5,1.6h-.1" fill="#c65c50"/>
                      <path id="fbd01019-0141-4905-9d0e-4a5adf3c3143" data-name="Path 1130" d="M14.6,13.6h0a2.9,2.9,0,0,0-.2-.9h.1a2.9,2.9,0,0,1,.2.9h0" fill="#c65c50"/>
                      <rect id="bf271147-69a5-4cd9-ac38-fe09905616f4" data-name="Rectangle 478" x="14.9" y="23.5" width="0.1" height="4.18" fill="#b3171a"/>
                      <path id="b968437c-38d2-4a63-9f18-f7cb13a2c220" data-name="Path 1131" d="M15.9,24.9c0,.2-.1.3-.2.3a.3.3,0,0,1-.3-.3c0-.1.1-.2.3-.2a.2.2,0,0,1,.2.2h0" fill="#b3171a"/>
                      <path id="a97114c2-2b2b-46bc-8cd7-2b23a5d2ff4e" data-name="Path 1132" d="M15.9,26.6a.2.2,0,0,1-.2.2c-.2,0-.3-.1-.3-.2a.3.3,0,0,1,.3-.3c.1,0,.2.1.2.3h0" fill="#b3171a"/>
                      <path id="b4103936-f55c-4ca5-bd14-92c44d436fab" data-name="Path 1133" d="M10.2,14.4h.1V12.1h-.1a.9.9,0,0,0-.9.9v.5a.9.9,0,0,0,.9.9h0" fill="#cc635e"/>
                      <path id="a74443e4-60d7-48de-8c5f-4c894b961557" data-name="Path 1134" d="M20,14.4h-.1V12.1H20a.9.9,0,0,1,.9.9v.5a.9.9,0,0,1-.9.9h0" fill="#cc635e"/>
                      <path id="eff870e1-3243-4343-aa4d-45adf8137af4" data-name="Path 1135" d="M16.3,15.3a1.2,1.2,0,0,1-1.2,1.1,1.1,1.1,0,0,1-1.2-1.1h2.4Z" fill="#661027"/>
                      <path id="e94b9c84-5a35-4d11-a7c7-869d5639df41" data-name="Path 1136" d="M13.9,15.4s.1.3,1.2.3,1.2-.3,1.2-.3H13.9Z" fill="#e8e8e8"/>
                      <g id="a16b62c5-4948-4eca-b342-9f47a01bdc0a" data-name="Group 484" opacity="0.5">
                        <g id="be7a4924-6eb1-4090-acb8-17b836806f63" data-name="Group 483">
                          <g clip-path="url(#b9554a9e-0358-493c-a72d-39df85ae40de)">
                            <g id="e64a23b4-ab1f-4746-a247-7f77181c29ac" data-name="Group 482">
                              <path id="ad5af623-0411-47e3-9479-939c1319d8e9" data-name="Path 1137" d="M16,16.1l-.9-.2-.9.2a1.3,1.3,0,0,0,.9.4,1.5,1.5,0,0,0,.9-.4" fill="#c21a3d"/>
                            </g>
                          </g>
                        </g>
                      </g>
                      <path id="a07d6fcb-1c3f-420c-83d8-e5642772b6d4" data-name="Path 1138" d="M15.1,16.5a1.2,1.2,0,0,1-1.2-1.2h2.4a1.2,1.2,0,0,1-1.2,1.2m-1.2-1.2a1.3,1.3,0,0,0,1.2,1.1,1.1,1.1,0,0,0,1.1-1.1Z" fill="#c65c50"/>
                    </g>
                  </g>
                </g>
              </g>
            </g>
          </g>
        </g>
      </g>
    </g>
  </g>
</svg>
